# xmcd
#
# Track frame offsets:
#	150
#	16250
#	33335
#	49727
#	78232
#	98837
#	123300
#	141145
#	157755
#	172160
#	194642
#	212865
#	236677
#	251485
#	269132
#	284285
#
# Disc length: 4031 seconds
#
# Revision: 0
# Processed by: cddbd v1.5.2PL0 Copyright (c) Steve Scherf et al.
# Submitted via: EasyCDDAExtractor 16.0.9.1
#
DISCID=e40fbd10
DTITLE=Various Artist - Dance Dance Dance 3
DYEAR=1996
DGENRE=Euro-House
TTITLE0=Jr. Flex - Work That Love 
TTITLE1=Beat System - Fresh
TTITLE2=DJ Capone - Too Hot
TTITLE3=Cobra  - Born 2 Love You
TTITLE4=Blanca  - Give Me Love
TTITLE5=Gam Gam - Ite Missa Est
TTITLE6=Primax feat. Kimberly  - Sound The Alarm
TTITLE7=Max-A-Million - Take Your Time
TTITLE8=T-Power - Ring My Bell
TTITLE9=J.J. Brothers - Move It Up
TTITLE10=Carol Bailey - Fever
TTITLE11=Antares  - Let Me Be Your Fantasy
TTITLE12=O. Dance - Dominator
TTITLE13=Anulator  - Say No More
TTITLE14=Rytmica - Party Time
TTITLE15=Interface - There Are No More
EXTD=
EXTT0=
EXTT1=
EXTT2=
EXTT3=
EXTT4=
EXTT5=
EXTT6=
EXTT7=
EXTT8=
EXTT9=
EXTT10=
EXTT11=
EXTT12=
EXTT13=
EXTT14=
EXTT15=
PLAYORDER=
